<svg width="19" height="18" viewBox="0 0 19 18" fill="none" xmlns="http://www.w3.org/2000/svg">
<path d="M8.2146 9.80767C8.55466 10.2321 8.98851 10.5832 9.48672 10.8373C9.98494 11.0914 10.5359 11.2425 11.1021 11.2804C11.6684 11.3183 12.2368 11.242 12.7687 11.0568C13.3006 10.8715 13.7837 10.5817 14.185 10.2068L16.5605 7.98922C17.2817 7.29215 17.6808 6.35853 17.6718 5.38944C17.6628 4.42036 17.2464 3.49335 16.5123 2.80808C15.7782 2.12281 14.7852 1.7341 13.7472 1.72568C12.7091 1.71726 11.709 2.0898 10.9623 2.76306L9.60031 4.02709" stroke="black" stroke-width="2" stroke-linecap="round" stroke-linejoin="round"/>
<path d="M11.3819 8.32926C11.0418 7.90486 10.608 7.5537 10.1098 7.29959C9.61155 7.04549 9.06062 6.89438 8.49434 6.85652C7.92807 6.81866 7.35969 6.89493 6.82777 7.08017C6.29585 7.2654 5.81282 7.55526 5.41145 7.93009L3.03595 10.1477C2.31475 10.8448 1.91569 11.7784 1.92471 12.7475C1.93373 13.7166 2.35011 14.6436 3.08418 15.3288C3.81824 16.0141 4.81125 16.4028 5.84933 16.4112C6.88742 16.4197 7.88751 16.0471 8.63422 15.3739L9.98826 14.1098" stroke="black" stroke-width="2" stroke-linecap="round" stroke-linejoin="round"/>
</svg>
