<svg width="42" height="49" viewBox="0 0 42 49" fill="none" xmlns="http://www.w3.org/2000/svg">
<g filter="url(#filter0_d_45_56)">
<path d="M22.857 23.4554V18.3945C22.857 18.2267 22.7904 18.0658 22.6717 17.9472C22.5531 17.8285 22.3922 17.7619 22.2244 17.7619H19.694C19.5262 17.7619 19.3653 17.8285 19.2466 17.9472C19.128 18.0658 19.0613 18.2267 19.0613 18.3945V23.4554" stroke="#8A5CF6" stroke-width="2" stroke-linecap="round" stroke-linejoin="round"/>
<path d="M15.2657 17.4957C15.2656 17.3213 15.3057 17.149 15.3832 16.9909C15.4607 16.8327 15.5736 16.6924 15.7142 16.5799L20.1425 12.9845C20.3708 12.8016 20.6602 12.7013 20.9592 12.7013C21.2582 12.7013 21.5475 12.8016 21.7759 12.9845L26.2041 16.5799C26.3447 16.6924 26.4577 16.8327 26.5351 16.9909C26.6126 17.149 26.6527 17.3213 26.6527 17.4957V22.8897C26.6527 23.2076 26.5194 23.5125 26.2821 23.7372C26.0448 23.962 25.723 24.0883 25.3874 24.0883H16.5309C16.1953 24.0883 15.8735 23.962 15.6362 23.7372C15.399 23.5125 15.2657 23.2076 15.2657 22.8897V17.4957Z" stroke="#8A5CF6" stroke-width="2" stroke-linecap="round" stroke-linejoin="round"/>
<path fill-rule="evenodd" clip-rule="evenodd" d="M4.99389 15.593C5.32203 11.5993 7.1304 7.87563 10.0602 5.16095C12.9899 2.44626 16.8269 0.938927 20.8098 0.938049H21.637C25.6199 0.938927 29.4569 2.44626 32.3867 5.16095C35.3165 7.87563 37.1248 11.5993 37.453 15.593C37.818 20.0419 36.4519 24.4596 33.6426 27.9149L24.4651 39.2061C24.0724 39.6893 23.5778 40.0787 23.0172 40.3461C22.4565 40.6135 21.8439 40.7522 21.2234 40.7522C20.603 40.7522 19.9903 40.6135 19.4297 40.3461C18.8691 40.0787 18.3745 39.6893 17.9817 39.2061L8.80427 27.9149C5.99499 24.4596 4.62887 20.0419 4.99389 15.593ZM20.8098 3.8278C17.5483 3.82919 14.4063 5.06394 12.0073 7.28713C9.60826 9.51031 8.12737 12.5595 7.85838 15.8299C7.55447 19.5325 8.6913 23.2091 11.0292 26.0847L20.2067 37.3779C20.3301 37.5298 20.4855 37.6522 20.6616 37.7363C20.8378 37.8203 21.0304 37.864 21.2253 37.864C21.4203 37.864 21.6129 37.8203 21.7891 37.7363C21.9652 37.6522 22.1206 37.5298 22.244 37.3779L31.4215 26.0847C33.758 23.2085 34.8935 19.5319 34.5885 15.8299C34.3195 12.5592 32.8383 9.50971 30.4389 7.28647C28.0394 5.06324 24.897 3.82871 21.6351 3.8278H20.8098Z" fill="#8A5CF6"/>
</g>
<defs>
<filter id="filter0_d_45_56" x="0.935822" y="0.938049" width="40.5752" height="47.8142" filterUnits="userSpaceOnUse" color-interpolation-filters="sRGB">
<feFlood flood-opacity="0" result="BackgroundImageFix"/>
<feColorMatrix in="SourceAlpha" type="matrix" values="0 0 0 0 0 0 0 0 0 0 0 0 0 0 0 0 0 0 127 0" result="hardAlpha"/>
<feOffset dy="4"/>
<feGaussianBlur stdDeviation="2"/>
<feComposite in2="hardAlpha" operator="out"/>
<feColorMatrix type="matrix" values="0 0 0 0 0 0 0 0 0 0 0 0 0 0 0 0 0 0 0.25 0"/>
<feBlend mode="normal" in2="BackgroundImageFix" result="effect1_dropShadow_45_56"/>
<feBlend mode="normal" in="SourceGraphic" in2="effect1_dropShadow_45_56" result="shape"/>
</filter>
</defs>
</svg>
